<svg xmlns="http://www.w3.org/2000/svg" viewBox="20 -2 260 262"><defs><linearGradient id="gold" x1="0%" y1="0%" x2="0%" y2="100%"><stop offset="0%" stop-color="#FBC94A"/><stop offset="100%" stop-color="#EFA324"/></linearGradient><linearGradient id="navy" x1="0%" y1="0%" x2="0%" y2="100%"><stop offset="0%" stop-color="#233B63"/><stop offset="100%" stop-color="#152643"/></linearGradient><radialGradient id="screen" cx="50%" cy="35%" r="75%"><stop offset="0%" stop-color="#2A4770"/><stop offset="100%" stop-color="#16253F"/></radialGradient></defs><rect x="20" y="-2" width="260" height="262" fill="#FBF6EC"/><g fill="#F5B93A"><path d="M46 70 L52 84 L66 90 L52 96 L46 110 L40 96 L26 90 L40 84 Z"/><path d="M240 60 L244 70 L254 74 L244 78 L240 88 L236 78 L226 74 L236 70 Z"/><path d="M254 100 L257 107 L264 110 L257 113 L254 120 L251 113 L244 110 L251 107 Z"/></g><rect x="146" y="18" width="8" height="26" rx="4" fill="#C9CDD3"/><circle cx="150" cy="14" r="11" fill="#5EC7EE"/><circle cx="146.5" cy="10.5" r="3.2" fill="#EAF8FF"/><rect x="62" y="42" width="176" height="150" rx="46" fill="url(#gold)"/><rect x="76" y="56" width="148" height="122" rx="36" fill="url(#screen)"/><g><ellipse cx="118" cy="122" rx="17" ry="20" fill="#FFFFFF"/><ellipse cx="182" cy="122" rx="17" ry="20" fill="#FFFFFF"/><circle cx="121" cy="126" r="8.5" fill="#16253F"/><circle cx="185" cy="126" r="8.5" fill="#16253F"/><circle cx="124" cy="121" r="2.6" fill="#FFFFFF"/><circle cx="188" cy="121" r="2.6" fill="#FFFFFF"/></g><path d="M126 152 Q150 172 174 152" fill="none" stroke="#EAF3FF" stroke-width="6" stroke-linecap="round"/><rect x="88" y="186" width="124" height="70" rx="30" fill="url(#gold)"/><rect x="100" y="196" width="100" height="48" rx="20" fill="url(#navy)"/><path d="M96 214 Q66 216 62 240 Q60 256 78 258 Q94 258 96 242 Z" fill="url(#gold)"/><path d="M204 214 Q234 216 238 240 Q240 256 222 258 Q206 258 204 242 Z" fill="url(#gold)"/><g><rect x="95" y="204" width="40" height="46" rx="10" fill="#FBF6EC" stroke="#E7DCC4" stroke-width="2"/><text x="115" y="238" font-family="Arial, Helvetica, sans-serif" font-weight="900" font-size="30" fill="#F0862E" text-anchor="middle">1</text><rect x="130" y="200" width="42" height="52" rx="10" fill="#39C6C0"/><text x="151" y="240" font-family="Arial, Helvetica, sans-serif" font-weight="900" font-size="32" fill="#FFFFFF" text-anchor="middle">2</text><rect x="167" y="204" width="40" height="46" rx="10" fill="#F0862E"/><text x="187" y="238" font-family="Arial, Helvetica, sans-serif" font-weight="900" font-size="30" fill="#FFFFFF" text-anchor="middle">3</text></g></svg>
